<?xml version="1.0" encoding="UTF-8" standalone="no"?>
<!-- Created with Inkscape (http://www.inkscape.org/) -->

<svg
   xmlns:dc="http://purl.org/dc/elements/1.1/"
   xmlns:cc="http://creativecommons.org/ns#"
   xmlns:rdf="http://www.w3.org/1999/02/22-rdf-syntax-ns#"
   xmlns:svg="http://www.w3.org/2000/svg"
   xmlns="http://www.w3.org/2000/svg"
   xmlns:sodipodi="http://sodipodi.sourceforge.net/DTD/sodipodi-0.dtd"
   xmlns:inkscape="http://www.inkscape.org/namespaces/inkscape"
   width="345.04001"
   height="345.04001"
   viewBox="0 0 91.291838 91.291833"
   version="1.1"
   id="svg8"
   inkscape:version="0.92.3 (unknown)"
   sodipodi:docname="tokenator.svg">
  <defs
     id="defs2">















	
</defs>
  <sodipodi:namedview
     id="base"
     pagecolor="#ffffff"
     bordercolor="#666666"
     borderopacity="1.0"
     inkscape:pageopacity="0.0"
     inkscape:pageshadow="2"
     inkscape:zoom="0.98994949"
     inkscape:cx="486.3478"
     inkscape:cy="227.01403"
     inkscape:document-units="px"
     inkscape:current-layer="layer1"
     showgrid="false"
     units="px"
     inkscape:window-width="1366"
     inkscape:window-height="768"
     inkscape:window-x="0"
     inkscape:window-y="0"
     inkscape:window-maximized="1" />
  <metadata
     id="metadata5">
    <rdf:RDF>
      <cc:Work
         rdf:about="">
        <dc:format>image/svg+xml</dc:format>
        <dc:type
           rdf:resource="http://purl.org/dc/dcmitype/StillImage" />
        <dc:title></dc:title>
      </cc:Work>
    </rdf:RDF>
  </metadata>
  <g
     inkscape:label="Layer 1"
     inkscape:groupmode="layer"
     id="layer1"
     transform="translate(0,-205.70817)">
    <g
       id="g4666"
       transform="translate(-43.178298,97.606603)">
      <path
         sodipodi:nodetypes="sssss"
         style="stroke-width:0.30792838"
         inkscape:connector-curvature="0"
         d="m 88.824527,108.10157 c -25.209875,0 -45.646226,20.4362 -45.646226,45.6459 0,25.20972 20.436351,45.64593 45.646226,45.64593 25.209263,0 45.645603,-20.43621 45.645603,-45.64593 0,-25.2097 -20.43634,-45.6459 -45.645603,-45.6459 z"
         id="path3713" />
      <g
         aria-label="Tokenator"
         style="font-style:normal;font-variant:normal;font-weight:normal;font-stretch:normal;font-size:71.32454681px;line-height:1.25;font-family:'Autour One';-inkscape-font-specification:'Autour One';letter-spacing:0px;word-spacing:0px;fill:#ffffff;fill-opacity:1;stroke:none;stroke-width:1.78311384"
         id="text3793">
        <path
           d="m 62.828877,156.04592 c -0.416501,0.51117 -1.060185,0.58689 -0.60582,-0.49222 0.719411,-1.76067 3.615988,-7.45916 5.357721,-7.45916 0.07573,0 0.170386,0.0379 0.246114,0.0947 0.07573,-0.58689 -0.870866,-0.85194 -1.116981,-0.85194 -0.984457,0 -2.309689,1.62814 -2.442212,2.2529 0.0568,0.11359 0.132523,0.30291 -0.113591,0.7762 -0.549024,1.11698 -3.104827,5.41452 -2.934441,6.62616 0.01893,0.13252 0.624752,0.22718 0.738344,0.22718 0.51116,0 1.022321,-0.90873 1.325231,-1.32523 0.01893,-0.0189 0.359705,-0.39757 0.227182,-0.49223 -0.151455,-0.0189 -0.416501,0.30291 -0.681547,0.64368 z m 8.102842,-6.45576 c -0.454365,-0.70048 0.151455,-1.64708 0.814071,-2.30969 0.378638,-0.37864 0.795139,-0.60582 0.984458,-0.79514 0.416501,-0.45437 -0.07573,-0.77621 -0.549025,-0.68155 -0.189319,0.0189 -0.435433,0.20825 -0.776207,0.58689 -1.41989,-0.0189 -4.714037,-0.85194 -7.629545,-0.66262 -2.442212,0.17039 -4.732969,1.06019 -5.130539,2.95338 -0.01893,0.0947 -0.01893,0.28397 -0.01893,0.30291 -0.416502,1.11698 0.795138,1.98784 1.438822,2.17716 0.227183,0.0757 0.397569,-0.0568 0.170387,-0.22718 -0.378638,-0.28398 -1.363095,-0.64369 -1.135913,-1.57135 0.340774,-1.57134 2.366485,-2.57473 4.63831,-2.87764 2.385416,-0.35971 4.960151,0.13252 7.421295,0.18932 -0.113591,0.11359 -0.359706,0.39757 -0.454365,0.56795 -0.416501,0.85194 -0.397569,2.17717 -0.151455,2.44221 0.246114,0.30291 0.492229,0.0568 0.378637,-0.0947 z"
           style="font-style:normal;font-variant:normal;font-weight:normal;font-stretch:normal;font-size:18.93187523px;font-family:Allura;-inkscape-font-specification:Allura;fill:#ffffff;stroke-width:1.78311384"
           id="path4668"
           inkscape:connector-curvature="0" />
        <path
           d="m 68.980553,155.13719 c -0.567956,0.85194 -1.382027,1.47669 -1.968915,1.47669 -0.700479,0 -0.927662,-0.64368 -0.795139,-1.38203 0.30291,-1.7228 2.12037,-3.65385 2.953373,-3.65385 0.359705,0 0.397569,0.30291 0.359705,0.51116 0,0.15146 0.283978,0.17039 0.321842,-0.13252 0.07573,-0.4733 -0.20825,-0.79514 -0.549024,-0.90873 -0.567956,-0.20825 -1.419891,0.0947 -2.12037,0.71941 -0.851935,0.75728 -1.476687,1.76067 -1.666005,2.48008 -0.340774,1.17377 -0.113592,2.06357 0.51116,2.44221 0.624752,0.39757 1.647074,0.34077 2.499008,-0.37864 0.246114,-0.22718 0.492229,-0.4733 0.738343,-0.73834 0.132523,0.28398 0.454365,0.47329 0.776207,0.47329 0.738343,0 1.495618,-0.81407 1.912119,-1.32523 0.283978,-0.34077 0.530093,-0.64368 0.643684,-0.87086 0.09466,-0.17039 -0.132523,-0.28398 -0.227182,-0.15146 -0.189319,0.26505 -0.435434,0.54903 -0.662616,0.81407 -0.378638,0.39757 -1.003389,1.09805 -1.609209,1.09805 -0.246115,0 -0.454365,-0.15145 -0.473297,-0.51116 0.416501,-0.58689 1.079117,-1.76066 0.81407,-2.53687 -0.151455,-0.51116 -0.984457,-0.32184 -0.776207,0.20825 0.09466,0.22718 0.246115,0.62475 -0.265046,1.64707 -0.321842,-0.0947 -0.586888,0.20825 -0.473297,0.60582 0,0.0568 0.03786,0.0757 0.0568,0.11359 z"
           style="font-style:normal;font-variant:normal;font-weight:normal;font-stretch:normal;font-size:18.93187523px;font-family:Allura;-inkscape-font-specification:Allura;fill:#ffffff;stroke-width:1.78311384"
           id="path4670"
           inkscape:connector-curvature="0" />
        <path
           d="m 73.951353,151.02898 c -0.321841,-0.18932 -0.60582,0.32184 -0.09466,0.60582 -0.378637,0.51116 -1.079117,1.57134 -1.609209,2.21503 -0.321842,0.4165 0.07573,0.43543 0.189318,0.28398 0.435434,-0.62476 0.757275,-1.02233 1.022322,-1.3063 -0.624752,1.59027 -1.382027,3.8053 -1.495618,4.01355 -0.170387,0.35971 0.851934,-0.0947 1.041253,-0.18932 0.265046,-0.15145 0.90873,-1.32523 1.779596,-2.5558 0.454365,2.49901 2.082506,5.56597 3.956762,5.56597 0.473297,0 1.438822,-0.3597 1.457754,-1.13591 0,-0.32184 -0.283978,-0.87087 -0.416501,-1.02232 -0.246114,-0.18932 -0.624752,-0.28398 -0.359706,0.13252 0.30291,0.4733 0.757275,1.51455 -0.170387,1.51455 -0.492228,0 -1.135912,-0.43543 -1.703868,-1.11698 -1.3063,-1.60921 -1.703869,-2.5558 -2.271825,-4.56258 0.757275,-0.79514 2.158233,-1.41989 2.745122,-1.70387 0.90873,-0.45436 0.151455,-1.17378 -0.738344,-0.73834 -0.624751,0.30291 -1.628141,1.45775 -2.101438,2.00678 l -0.07573,-0.26505 c -0.0568,-0.4733 -0.340774,-0.11359 -0.378638,0.13252 -0.03786,0.20825 -0.03786,0.43544 -0.01893,0.70048 l -1.230571,1.60921 c 0.189318,-0.58689 0.719411,-2.10144 1.306299,-3.40774 1.060185,-0.45436 2.650462,-1.55241 3.862102,-2.83978 0.530093,-0.58688 2.461144,-2.78298 1.173777,-3.48346 -0.113592,-0.0568 -0.265047,-0.13252 -0.416502,-0.15146 -2.404348,-0.47329 -4.392195,3.33201 -5.300925,5.73636 -0.05679,0 -0.09466,-0.0189 -0.151455,-0.0379 z m 1.060185,0.13252 c 1.00339,-2.17716 1.987847,-3.74851 3.691716,-5.05481 0.435433,-0.34077 0.738343,-0.39757 0.889798,-0.28398 0.530093,0.4165 -1.098049,2.55581 -1.382027,2.87765 -0.965525,1.11698 -2.12037,1.96891 -3.199487,2.46114 z"
           style="font-style:normal;font-variant:normal;font-weight:normal;font-stretch:normal;font-size:18.93187523px;font-family:Allura;-inkscape-font-specification:Allura;fill:#ffffff;stroke-width:1.78311384"
           id="path4672"
           inkscape:connector-curvature="0" />
        <path
           d="m 83.753332,152.80857 c 0.359706,-0.53009 0.473297,-1.49561 -0.30291,-1.76066 -1.41989,-0.4733 -4.354331,2.00678 -4.922287,3.29415 -1.041253,2.38541 1.382027,3.16162 3.313078,2.38541 1.325231,-0.54902 2.517939,-1.59028 3.275214,-2.83978 0.07573,-0.0947 0.07573,-0.18932 -0.01893,-0.22718 -0.03786,-0.0379 -0.132523,-0.0379 -0.20825,0.0568 -0.681548,1.04126 -1.893188,2.06358 -3.294147,2.63153 -1.230571,0.49223 -2.688326,0.4733 -2.215029,-1.11698 0.416501,-1.38202 2.044643,-2.95337 3.161623,-3.46453 0.265046,-0.13252 0.946594,-0.4165 0.965526,0.11359 0.03786,0.4165 -0.530093,0.98446 -0.851935,1.23057 -0.700479,0.56796 -1.760664,1.17378 -2.366484,1.23058 -0.283978,0.0189 -0.151455,0.28397 0.132523,0.26504 0.851935,-0.0757 2.650463,-0.79514 3.33201,-1.79853 z"
           style="font-style:normal;font-variant:normal;font-weight:normal;font-stretch:normal;font-size:18.93187523px;font-family:Allura;-inkscape-font-specification:Allura;fill:#ffffff;stroke-width:1.78311384"
           id="path4674"
           inkscape:connector-curvature="0" />
        <path
           d="m 88.947469,152.84644 c -0.473296,0.87086 -2.02571,3.88103 -0.03786,4.07035 0.530092,0.0568 1.154844,-0.20825 1.51455,-0.4733 0.946593,-0.68154 2.101438,-1.93105 2.461143,-2.59366 0.09466,-0.17039 -0.151455,-0.28398 -0.246114,-0.15146 -0.776207,1.09805 -2.215029,2.29076 -2.820849,2.63153 -0.60582,0.32184 -0.984458,-0.11359 -0.870867,-0.92766 0.0568,-0.3597 0.189319,-0.87087 0.435434,-1.43882 0.246114,-0.64369 0.681547,-1.23057 0.889798,-1.87426 0.378637,-1.13591 -0.416502,-1.26843 -1.51455,-0.45436 -1.041254,0.81407 -2.688327,2.59366 -3.483465,3.57812 0.227182,-0.60582 0.833002,-2.29075 1.306299,-3.33201 0.151455,-0.30291 0.170387,-0.47329 -0.132523,-0.54902 -0.984458,-0.26505 -0.90873,0.62475 -1.00339,0.85193 -0.378637,1.04126 -1.495618,4.27861 -1.647073,4.65724 -0.189318,0.35971 0.814071,-0.0947 1.00339,-0.18932 0.359705,-0.20825 1.949983,-2.70725 3.0291,-3.69171 1.382027,-1.19271 1.457754,-0.71941 1.11698,-0.11359 z"
           style="font-style:normal;font-variant:normal;font-weight:normal;font-stretch:normal;font-size:18.93187523px;font-family:Allura;-inkscape-font-specification:Allura;fill:#ffffff;stroke-width:1.78311384"
           id="path4676"
           inkscape:connector-curvature="0" />
        <path
           d="m 93.34351,156.70854 c 1.51455,0 3.313078,-2.65046 3.63492,-2.80192 -0.246115,0.66262 -0.473297,1.79853 -0.30291,2.30969 0.378637,1.13591 1.779596,0.68155 2.385416,0.22718 0.946594,-0.68154 2.120374,-1.93105 2.461144,-2.59366 0.0947,-0.17039 -0.13252,-0.28398 -0.22718,-0.15146 -0.77621,1.09805 -2.1961,2.29076 -2.820852,2.63153 -0.60582,0.32184 -0.984458,-0.11359 -0.870866,-0.92766 0.07573,-0.60582 0.454365,-1.7796 1.135912,-2.74512 0.170387,-0.30291 -0.567956,-0.45437 -0.757275,-0.45437 -0.170387,0 -1.609209,1.59028 -1.874256,1.87426 -0.492228,0.53009 -1.344163,1.2495 -1.836392,1.666 -0.265046,0.20826 -1.192708,0.8898 -1.457754,0.51117 -0.586888,-0.83301 0.984458,-2.63154 1.51455,-3.12376 0.984458,-0.87087 2.309689,-1.62815 3.294146,-1.62815 0.359706,0 0.738344,0.0379 0.946594,0.35971 0.09466,0.0379 0.113591,0.0379 0.113591,-0.0947 0,-0.18932 -0.132523,-0.37864 -0.321841,-0.51116 -0.492229,-0.34077 -1.325232,-0.30291 -1.893188,-0.15145 -1.419891,0.34077 -5.736358,3.18055 -4.335399,4.96015 0.283978,0.37863 0.81407,0.64368 1.21164,0.64368 z"
           style="font-style:normal;font-variant:normal;font-weight:normal;font-stretch:normal;font-size:18.93187523px;font-family:Allura;-inkscape-font-specification:Allura;fill:#ffffff;stroke-width:1.78311384"
           id="path4678"
           inkscape:connector-curvature="0" />
        <path
           d="m 105.85807,151.06684 c -0.71941,-0.0189 -1.19271,0.0757 -1.7796,0.13252 l -0.24611,0.0189 0.90873,-1.59028 c 0.11359,-0.22718 0.30291,-0.20825 0.39757,-0.39757 0.11359,-0.17039 0.34077,-0.54902 0.17039,-0.77621 -0.1136,-0.17038 -0.4733,-0.22718 -0.75728,-0.18932 -0.26505,0.0379 -0.30291,0.22719 -0.77621,1.04126 l -0.94659,1.76066 c -0.0379,0 -0.0568,0 -0.0757,0.0379 -0.3597,0.0189 -0.85193,0.0189 -1.00339,0.34077 -0.11359,0.24611 0.0757,0.4165 0.26505,0.4165 0.0947,0 0.24611,0 0.43543,-0.0379 -0.24611,0.45436 -0.4165,0.75727 -0.4165,0.79514 -0.28398,0.43543 -0.79514,1.13591 -1.45775,1.94998 -0.17039,0.22718 0.0189,0.4733 0.20825,0.26504 0.39757,-0.45436 0.56795,-0.73834 0.73834,-0.94659 -0.39757,0.87087 -0.71941,1.89319 -0.56796,2.32862 0.37864,1.13591 1.7796,0.68155 2.38542,0.22718 0.94659,-0.68154 2.10144,-1.93105 2.46114,-2.59366 0.0947,-0.17039 -0.13252,-0.28398 -0.22718,-0.15146 -0.79514,1.09805 -2.21503,2.29076 -2.82085,2.63153 -0.62475,0.32184 -1.00339,-0.11359 -0.87086,-0.92766 0.0568,-0.60582 0.56795,-1.60921 1.13591,-2.74512 0.0568,-0.17039 0.28398,-0.49223 0.53009,-0.94659 0.8898,-0.0947 1.85533,-0.22719 2.1393,-0.32185 0.79514,-0.18932 0.39757,-0.32184 0.17039,-0.32184 z"
           style="font-style:normal;font-variant:normal;font-weight:normal;font-stretch:normal;font-size:18.93187523px;font-family:Allura;-inkscape-font-specification:Allura;fill:#ffffff;stroke-width:1.78311384"
           id="path4680"
           inkscape:connector-curvature="0" />
        <path
           d="m 108.84102,155.13719 c -0.56795,0.85194 -1.38202,1.47669 -1.96891,1.47669 -0.70048,0 -0.92766,-0.64368 -0.79514,-1.38203 0.30291,-1.7228 2.12037,-3.65385 2.95337,-3.65385 0.35971,0 0.39757,0.30291 0.35971,0.51116 0,0.15146 0.28398,0.17039 0.32184,-0.13252 0.0757,-0.4733 -0.20825,-0.79514 -0.54902,-0.90873 -0.56796,-0.20825 -1.41989,0.0947 -2.12037,0.71941 -0.85194,0.75728 -1.47669,1.76067 -1.66601,2.48008 -0.34077,1.17377 -0.11359,2.06357 0.51116,2.44221 0.62475,0.39757 1.64707,0.34077 2.49901,-0.37864 0.24611,-0.22718 0.49223,-0.4733 0.73834,-0.73834 0.13253,0.28398 0.45437,0.47329 0.77621,0.47329 0.73834,0 1.49562,-0.81407 1.91212,-1.32523 0.28398,-0.34077 0.53009,-0.64368 0.64368,-0.87086 0.0947,-0.17039 -0.13252,-0.28398 -0.22718,-0.15146 -0.18932,0.26505 -0.43543,0.54903 -0.66262,0.81407 -0.37863,0.39757 -1.00339,1.09805 -1.60921,1.09805 -0.24611,0 -0.45436,-0.15145 -0.47329,-0.51116 0.4165,-0.58689 1.07911,-1.76066 0.81407,-2.53687 -0.15146,-0.51116 -0.98446,-0.32184 -0.77621,0.20825 0.0947,0.22718 0.24612,0.62475 -0.26504,1.64707 -0.32185,-0.0947 -0.58689,0.20825 -0.4733,0.60582 0,0.0568 0.0379,0.0757 0.0568,0.11359 z"
           style="font-style:normal;font-variant:normal;font-weight:normal;font-stretch:normal;font-size:18.93187523px;font-family:Allura;-inkscape-font-specification:Allura;fill:#ffffff;stroke-width:1.78311384"
           id="path4682"
           inkscape:connector-curvature="0" />
        <path
           d="m 112.10796,154.36099 c 0.75727,-0.92766 1.40096,-1.91212 2.0825,-2.87765 0.28398,0 0.54903,0.0379 0.85194,0.0947 1.3063,0.20825 0.43543,1.04126 0.15145,1.3631 -0.70048,0.71941 -1.94998,2.10144 -1.60921,3.33201 0.13253,0.53009 0.49223,0.70048 0.90873,0.70048 0.5301,0 1.13592,-0.26505 1.47669,-0.5301 0.94659,-0.68154 2.10144,-1.93105 2.46114,-2.59366 0.0947,-0.17039 -0.15145,-0.28398 -0.24611,-0.15146 -0.77621,1.09805 -2.1961,2.29076 -2.80192,2.63153 -0.62475,0.32184 -0.90873,-0.20825 -0.60582,-1.06018 0.22718,-0.60582 0.85194,-1.83639 1.70387,-2.82085 0.66262,-0.75728 1.11698,-1.40096 -0.0189,-1.34416 -0.68155,0.0379 -1.34416,0 -1.98785,-0.0379 l 0.73834,-1.17377 c 0.51117,-0.92767 0.1136,-0.71942 -0.43543,-0.4733 -0.56795,0.26504 -1.36309,1.04125 -1.53348,1.60921 -0.0757,0.22718 0.11359,0.4165 0.39757,0.45436 -0.49223,0.9466 -1.07912,1.83639 -1.76067,2.6694 -0.28397,0.3597 0.0379,0.45436 0.22719,0.20825 z"
           style="font-style:normal;font-variant:normal;font-weight:normal;font-stretch:normal;font-size:18.93187523px;font-family:Allura;-inkscape-font-specification:Allura;fill:#ffffff;stroke-width:1.78311384"
           id="path4684"
           inkscape:connector-curvature="0" />
      </g>
      <path
         id="path3795"
         d="m 97.19443,116.58992 c -20.521819,-4.62259 -40.905132,8.26597 -45.527767,28.78768 -4.622637,20.52171 8.266017,40.90489 28.787837,45.52748 20.52132,4.62248 40.90463,-8.26609 45.52727,-28.78781 4.62264,-20.5217 -8.26602,-40.90487 -28.78734,-45.52735 z"
         inkscape:connector-curvature="0"
         style="fill:#ffffff;fill-opacity:0;stroke:#ffffff;stroke-width:1.42875135;stroke-linecap:round;stroke-linejoin:round;stroke-miterlimit:4;stroke-dasharray:17.14501561, 17.14501561;stroke-dashoffset:0;stroke-opacity:1"
         sodipodi:nodetypes="sssss" />
    </g>
  </g>
</svg>
